<mxfile host="app.diagrams.net" agent="Mozilla/5.0 (Windows NT 10.0; Win64; x64) AppleWebKit/537.36 (KHTML, like Gecko) Chrome/134.0.0.0 Safari/537.36" version="26.1.1">
  <diagram name="Page-1" id="zWKO5-9CYrxPzdCc-j6l">
    <mxGraphModel dx="2537" dy="1968" grid="1" gridSize="10" guides="1" tooltips="1" connect="1" arrows="1" fold="1" page="1" pageScale="1" pageWidth="850" pageHeight="1100" math="0" shadow="0">
      <root>
        <mxCell id="0" />
        <mxCell id="1" parent="0" />
        <mxCell id="WwbnttumN5bRGBid9gB5-7" value="" style="edgeStyle=orthogonalEdgeStyle;rounded=0;orthogonalLoop=1;jettySize=auto;html=1;" edge="1" parent="1" source="WwbnttumN5bRGBid9gB5-1" target="WwbnttumN5bRGBid9gB5-4">
          <mxGeometry relative="1" as="geometry" />
        </mxCell>
        <mxCell id="WwbnttumN5bRGBid9gB5-1" value="Início" style="strokeWidth=2;html=1;shape=mxgraph.flowchart.terminator;whiteSpace=wrap;" vertex="1" parent="1">
          <mxGeometry x="-360" y="-1070" width="90" height="60" as="geometry" />
        </mxCell>
        <mxCell id="WwbnttumN5bRGBid9gB5-2" value="- Desenvolva um algoritmo para fazer a cotação do dólar. Ele deverá ler a cotação do dólar atual, receber a quantidade de dólares para calcular a conversão para real e mostrar o resultado. Precisa ser feito em pseudocódigo e diagrama de blocos." style="text;whiteSpace=wrap;overflow=hidden;rounded=0;fontColor=default;fontSize=20;" vertex="1" parent="1">
          <mxGeometry x="-810" y="-1070" width="350" height="200" as="geometry" />
        </mxCell>
        <mxCell id="WwbnttumN5bRGBid9gB5-8" value="" style="edgeStyle=orthogonalEdgeStyle;rounded=0;orthogonalLoop=1;jettySize=auto;html=1;" edge="1" parent="1" source="WwbnttumN5bRGBid9gB5-4" target="WwbnttumN5bRGBid9gB5-5">
          <mxGeometry relative="1" as="geometry" />
        </mxCell>
        <mxCell id="WwbnttumN5bRGBid9gB5-4" value="cotDol" style="shape=manualInput;whiteSpace=wrap;html=1;" vertex="1" parent="1">
          <mxGeometry x="-372.5" y="-980" width="115" height="80" as="geometry" />
        </mxCell>
        <mxCell id="WwbnttumN5bRGBid9gB5-11" value="" style="edgeStyle=orthogonalEdgeStyle;rounded=0;orthogonalLoop=1;jettySize=auto;html=1;" edge="1" parent="1" source="WwbnttumN5bRGBid9gB5-5" target="WwbnttumN5bRGBid9gB5-10">
          <mxGeometry relative="1" as="geometry" />
        </mxCell>
        <mxCell id="WwbnttumN5bRGBid9gB5-5" value="dol" style="shape=manualInput;whiteSpace=wrap;html=1;" vertex="1" parent="1">
          <mxGeometry x="-355" y="-870" width="80" height="80" as="geometry" />
        </mxCell>
        <mxCell id="WwbnttumN5bRGBid9gB5-13" value="" style="edgeStyle=orthogonalEdgeStyle;rounded=0;orthogonalLoop=1;jettySize=auto;html=1;" edge="1" parent="1" source="WwbnttumN5bRGBid9gB5-10" target="WwbnttumN5bRGBid9gB5-12">
          <mxGeometry relative="1" as="geometry" />
        </mxCell>
        <mxCell id="WwbnttumN5bRGBid9gB5-10" value="reais &amp;lt;- dol * cotDol" style="rounded=1;whiteSpace=wrap;html=1;absoluteArcSize=1;arcSize=14;strokeWidth=2;" vertex="1" parent="1">
          <mxGeometry x="-390" y="-760" width="150" height="70" as="geometry" />
        </mxCell>
        <mxCell id="WwbnttumN5bRGBid9gB5-15" value="" style="edgeStyle=orthogonalEdgeStyle;rounded=0;orthogonalLoop=1;jettySize=auto;html=1;" edge="1" parent="1" source="WwbnttumN5bRGBid9gB5-12" target="WwbnttumN5bRGBid9gB5-14">
          <mxGeometry relative="1" as="geometry" />
        </mxCell>
        <mxCell id="WwbnttumN5bRGBid9gB5-12" value="reais" style="shape=display;whiteSpace=wrap;html=1;" vertex="1" parent="1">
          <mxGeometry x="-355" y="-650" width="80" height="40" as="geometry" />
        </mxCell>
        <mxCell id="WwbnttumN5bRGBid9gB5-14" value="Fim" style="strokeWidth=2;html=1;shape=mxgraph.flowchart.terminator;whiteSpace=wrap;" vertex="1" parent="1">
          <mxGeometry x="-360" y="-580" width="90" height="60" as="geometry" />
        </mxCell>
      </root>
    </mxGraphModel>
  </diagram>
</mxfile>
